# xmcd
# 
# Track frame offsets:
#     150
#     15552
#     34198
#     51326
#     63912
#     76585
#     93922
#     116379
#     132748
#     146053
#     160593
#     173885
#     194204
#     210971
#     224052
#     237737
# 
# Disc length: 3345
# 
# Revision: 0
# Processed by: cddbd v1.5.2PL0 Copyright (c) Steve Scherf et al.
# Submitted via: fre:ac v1.0.17
# 
DISCID=e80d0f10
DTITLE=The Temptations - The album
DYEAR=2000
DGENRE=Blues
TTITLE0=Papa was a rolling stone
TTITLE1=Ball Of Confusion-That's What The World Is Today
TTITLE2=Cloud Nine
TTITLE3=I'm Losing You-I Know
TTITLE4=Beauty Is Only Skin Deep
TTITLE5=Just My Imagination-Running Away With Me
TTITLE6=Runaway Child-Running Wild
TTITLE7=Keep On Trucking
TTITLE8=The Way You Do The Things You Do
TTITLE9=I Wish It Would Rain
TTITLE10=Get Ready
TTITLE11=Masterpiece
TTITLE12=Psychedelic Shack
TTITLE13=Ain't Too Proud To Beg
TTITLE14=Superstar-Remember How You Got Where You Are
TTITLE15=My Girl
EXTD=\nYEAR: 2000  ID3G:   0
EXTT0=
EXTT1=
EXTT2=
EXTT3=
EXTT4=
EXTT5=
EXTT6=
EXTT7=
EXTT8=
EXTT9=
EXTT10=
EXTT11=
EXTT12=
EXTT13=
EXTT14=
EXTT15=
PLAYORDER=
